<svg width="50" height="50" viewBox="0 0 50 50" fill="none" xmlns="http://www.w3.org/2000/svg">
<path d="M25 31.25C28.4518 31.25 31.25 28.4518 31.25 25C31.25 21.5482 28.4518 18.75 25 18.75C21.5482 18.75 18.75 21.5482 18.75 25C18.75 28.4518 21.5482 31.25 25 31.25Z" stroke="white" stroke-width="2" stroke-linecap="round" stroke-linejoin="round"/>
<path d="M40.1791 33.2512C40.0566 32.5754 40.1393 31.8784 40.4166 31.25C40.6807 30.6338 41.1192 30.1083 41.6782 29.7381C42.2371 29.368 42.8921 29.1693 43.5625 29.1667H43.75C44.855 29.1667 45.9149 28.7277 46.6963 27.9463C47.4777 27.1649 47.9166 26.1051 47.9166 25C47.9166 23.8949 47.4777 22.8351 46.6963 22.0537C45.9149 21.2723 44.855 20.8333 43.75 20.8333H43.3958C42.7254 20.8307 42.0704 20.632 41.5115 20.2619C40.9526 19.8917 40.5141 19.3662 40.25 18.75V18.5833C39.9727 17.955 39.8899 17.2579 40.0125 16.5821C40.135 15.9063 40.4572 15.2827 40.9375 14.7917L41.0625 14.6667C41.4499 14.2797 41.7572 13.8202 41.9669 13.3143C42.1766 12.8085 42.2845 12.2663 42.2845 11.7188C42.2845 11.1712 42.1766 10.629 41.9669 10.1232C41.7572 9.61735 41.4499 9.15781 41.0625 8.77084C40.6755 8.38344 40.216 8.07611 39.7101 7.86643C39.2043 7.65674 38.6621 7.54882 38.1146 7.54882C37.567 7.54882 37.0248 7.65674 36.519 7.86643C36.0132 8.07611 35.5536 8.38344 35.1666 8.77084L35.0416 8.89584C34.5506 9.37613 33.927 9.69831 33.2512 9.82085C32.5754 9.94339 31.8783 9.86067 31.25 9.58334C30.6338 9.31925 30.1083 8.88075 29.7381 8.32181C29.368 7.76288 29.1693 7.1079 29.1666 6.43751V6.25001C29.1666 5.14494 28.7277 4.08513 27.9463 3.30373C27.1649 2.52233 26.105 2.08334 25 2.08334C23.8949 2.08334 22.8351 2.52233 22.0537 3.30373C21.2723 4.08513 20.8333 5.14494 20.8333 6.25001V6.60418C20.8306 7.27457 20.632 7.92954 20.2618 8.48848C19.8917 9.04742 19.3662 9.48592 18.75 9.75001H18.5833C17.9549 10.0273 17.2579 10.1101 16.5821 9.98752C15.9063 9.86498 15.2826 9.54279 14.7916 9.06251L14.6666 8.93751C14.2797 8.55011 13.8201 8.24278 13.3143 8.03309C12.8085 7.82341 12.2663 7.71548 11.7187 7.71548C11.1712 7.71548 10.629 7.82341 10.1231 8.03309C9.61732 8.24278 9.15778 8.55011 8.77081 8.93751C8.38341 9.32448 8.07608 9.78402 7.8664 10.2898C7.65671 10.7957 7.54879 11.3379 7.54879 11.8854C7.54879 12.433 7.65671 12.9752 7.8664 13.481C8.07608 13.9868 8.38341 14.4464 8.77081 14.8333L8.89581 14.9583C9.3761 15.4493 9.69828 16.073 9.82082 16.7488C9.94336 17.4246 9.86064 18.1216 9.58331 18.75C9.34522 19.3974 8.91788 19.9581 8.35685 20.3594C7.79582 20.7607 7.12705 20.9839 6.43748 21H6.24998C5.14491 21 4.0851 21.439 3.3037 22.2204C2.5223 23.0018 2.08331 24.0616 2.08331 25.1667C2.08331 26.2717 2.5223 27.3316 3.3037 28.113C4.0851 28.8944 5.14491 29.3333 6.24998 29.3333H6.60415C7.27453 29.336 7.92951 29.5347 8.48845 29.9048C9.04739 30.275 9.48589 30.8005 9.74998 31.4167C10.0273 32.045 10.11 32.7421 9.98749 33.4179C9.86495 34.0937 9.54276 34.7173 9.06248 35.2083L8.93748 35.3333C8.55008 35.7203 8.24275 36.1798 8.03306 36.6857C7.82338 37.1915 7.71545 37.7337 7.71545 38.2813C7.71545 38.8288 7.82338 39.371 8.03306 39.8768C8.24275 40.3827 8.55008 40.8422 8.93748 41.2292C9.32445 41.6166 9.78399 41.9239 10.2898 42.1336C10.7956 42.3433 11.3378 42.4512 11.8854 42.4512C12.433 42.4512 12.9752 42.3433 13.481 42.1336C13.9868 41.9239 14.4463 41.6166 14.8333 41.2292L14.9583 41.1042C15.4493 40.6239 16.0729 40.3017 16.7488 40.1792C17.4246 40.0566 18.1216 40.1394 18.75 40.4167C19.3973 40.6548 19.9581 41.0821 20.3594 41.6431C20.7606 42.2042 20.9838 42.8729 21 43.5625V43.75C21 44.8551 21.439 45.9149 22.2204 46.6963C23.0018 47.4777 24.0616 47.9167 25.1666 47.9167C26.2717 47.9167 27.3315 47.4777 28.1129 46.6963C28.8943 45.9149 29.3333 44.8551 29.3333 43.75V43.3958C29.336 42.7255 29.5346 42.0705 29.9048 41.5115C30.2749 40.9526 30.8005 40.5141 31.4166 40.25C32.045 39.9727 32.742 39.89 33.4179 40.0125C34.0937 40.135 34.7173 40.4572 35.2083 40.9375L35.3333 41.0625C35.7203 41.4499 36.1798 41.7572 36.6856 41.9669C37.1915 42.1766 37.7337 42.2845 38.2812 42.2845C38.8288 42.2845 39.371 42.1766 39.8768 41.9669C40.3826 41.7572 40.8422 41.4499 41.2291 41.0625C41.6166 40.6755 41.9239 40.216 42.1336 39.7102C42.3432 39.2044 42.4512 38.6622 42.4512 38.1146C42.4512 37.567 42.3432 37.0248 42.1336 36.519C41.9239 36.0132 41.6166 35.5536 41.2291 35.1667L41.1041 35.0417C40.6239 34.5507 40.3017 33.9271 40.1791 33.2512Z" stroke="white" stroke-width="2" stroke-linecap="round" stroke-linejoin="round"/>
</svg>
